<svg width="58" height="56" fill="none" xmlns="http://www.w3.org/2000/svg"><path d="M28.517 25.433c-5.486-1.376-7.25-2.8-7.25-5.016 0-2.544 2.44-4.317 6.525-4.317 4.301 0 5.896 1.983 6.041 4.9h5.341c-.169-4.013-2.706-7.7-7.757-8.89V7h-7.25v5.04c-4.689.98-8.459 3.92-8.459 8.423 0 5.39 4.616 8.074 11.359 9.637 6.041 1.4 7.25 3.453 7.25 5.623 0 1.61-1.184 4.177-6.525 4.177-4.979 0-6.936-2.147-7.202-4.9h-5.317c.29 5.11 4.254 7.98 8.894 8.937V49h7.25v-5.017c4.712-.863 8.458-3.5 8.458-8.283 0-6.627-5.872-8.89-11.358-10.267z" fill="#fff"/></svg>