<svg width="58" height="58" viewBox="0 0 58 58" fill="none" xmlns="http://www.w3.org/2000/svg">
<path d="M28.9998 10.875C16.9165 10.875 6.59734 18.3908 2.4165 29C6.59734 39.6092 16.9165 47.125 28.9998 47.125C41.0832 47.125 51.4023 39.6092 55.5832 29C51.4023 18.3908 41.0832 10.875 28.9998 10.875ZM28.9998 41.0833C22.3298 41.0833 16.9165 35.67 16.9165 29C16.9165 22.33 22.3298 16.9167 28.9998 16.9167C35.6698 16.9167 41.0832 22.33 41.0832 29C41.0832 35.67 35.6698 41.0833 28.9998 41.0833ZM28.9998 21.75C24.9882 21.75 21.7498 24.9883 21.7498 29C21.7498 33.0117 24.9882 36.25 28.9998 36.25C33.0115 36.25 36.2498 33.0117 36.2498 29C36.2498 24.9883 33.0115 21.75 28.9998 21.75Z" fill="#FFFBFB"/>
</svg>
