<svg width="27" height="24" fill="none" xmlns="http://www.w3.org/2000/svg"><path fill-rule="evenodd" clip-rule="evenodd" d="M20.496 23.803c1.617.729 2.224-.798 2.224-.798L27 .86c-.034-1.492-1.988-.59-1.988-.59L1.05 9.954S-.095 10.371.006 11.1c.101.728 1.011 1.075 1.011 1.075l5.987 2.067a.496.496 0 00.023.22l1.661 5.325c.007.02.015.038.024.055.236.786.431 1.432.528 1.74.337 1.145.64 1.18.64 1.18.337.139.64-.105.64-.105l3.91-3.644 6.066 4.79zM8.712 19.84c.138.251.546.2.612-.123l.39-3.25c0-.139.07-.243.176-.312C11.233 14.981 21.237 6.2 21.66 5.784c.46-.484.319-.553.319-.553.035-.52-.849 0-.849 0L7.24 13.873a.512.512 0 00-.235.368l.046.016s.994 3.356 1.662 5.584z" fill="#121212"/></svg>